<?xml version="1.0" standalone="no"?>
<!DOCTYPE svg PUBLIC "-//W3C//DTD SVG 20010904//EN"
 "http://www.w3.org/TR/2001/REC-SVG-20010904/DTD/svg10.dtd">
<svg version="1.0" xmlns="http://www.w3.org/2000/svg"
 width="613.000000pt" height="613.000000pt" viewBox="0 0 613.000000 613.000000"
 preserveAspectRatio="xMidYMid meet">
<metadata>
Created by potrace 1.14, written by Peter Selinger 2001-2017
</metadata>
<g transform="translate(0.000000,613.000000) scale(0.100000,-0.100000)"
fill="#000000" stroke="none">
<path d="M1391 4295 c-60 -51 -63 -221 -7 -432 l14 -53 -41 -1 c-246 -5 -541
-85 -737 -199 -252 -147 -420 -347 -523 -620 -22 -60 -54 -173 -63 -227 -2
-13 -6 -35 -9 -50 -19 -105 -27 -395 -13 -478 37 -215 166 -361 352 -399 101
-21 94 -43 93 270 0 151 3 277 7 281 5 5 139 8 178 4 4 -1 7 -115 7 -253 0
-139 0 -266 0 -283 l1 -30 104 1 c57 1 108 4 113 7 4 3 8 129 8 281 0 216 2
276 12 277 17 1 115 1 151 0 l27 -1 0 -280 c0 -273 0 -280 20 -281 22 -1 171
-1 195 0 14 1 16 35 15 277 0 158 3 278 9 281 5 3 48 6 95 6 l86 0 0 -276 c0
-151 3 -279 7 -283 6 -6 256 -9 421 -5 l29 1 -6 85 c-11 153 -71 295 -157 373
-41 38 -119 82 -156 88 -31 6 -43 14 -22 15 8 0 205 1 439 2 l425 2 -3 35
c-12 139 -100 227 -239 238 l-62 5 -41 58 c-22 32 -57 92 -76 133 -23 48 -42
76 -53 77 -9 0 -23 2 -31 4 -8 1 -33 6 -55 9 -22 3 -53 11 -68 18 -27 10 -28
14 -23 57 4 25 16 77 27 114 22 67 44 96 146 187 15 14 35 36 44 49 l16 25 18
-32 c11 -18 22 -32 25 -32 3 0 13 15 24 33 l18 32 17 -25 c18 -28 54 -64 100
-98 17 -13 43 -44 58 -69 28 -48 62 -172 58 -211 -2 -22 0 -23 31 -17 19 3 65
21 103 39 l68 32 -22 45 c-11 24 -44 82 -71 129 -28 47 -53 93 -57 103 -38
102 171 2 258 -124 15 -21 31 -39 36 -39 15 0 102 128 125 185 29 72 34 92 35
170 2 86 -23 174 -68 248 -23 36 -23 39 -9 95 31 117 43 212 40 296 -7 149
-79 190 -218 122 -58 -28 -170 -109 -228 -164 -20 -19 -41 -32 -46 -28 -5 3
-25 8 -43 11 -158 25 -282 25 -398 1 l-73 -15 -62 53 c-131 111 -248 176 -315
176 -17 0 -42 -11 -60 -25z m493 -818 c21 -16 18 -45 -6 -61 -35 -22 -74 27
-48 59 15 18 31 19 54 2z m466 -7 c22 -40 -26 -80 -58 -48 -25 25 -6 68 30 68
9 0 22 -9 28 -20z m-596 -148 c-8 -20 -36 -72 -62 -116 -26 -45 -54 -93 -62
-108 -7 -16 -17 -28 -21 -28 -12 0 -112 78 -122 95 -19 34 122 167 207 196 66
23 82 12 60 -39z"/>
<path d="M3332 3538 c3 -31 5 -33 43 -34 22 -1 45 -2 50 -3 7 -1 11 -56 10
-153 l0 -153 35 0 35 0 1 140 c1 77 2 147 3 156 1 12 12 15 51 13 l50 -2 0 34
0 34 -141 0 -140 0 3 -32z"/>
<path d="M3699 3559 c-6 -48 -3 -54 29 -57 30 -3 32 -1 32 30 0 30 -3 33 -30
34 -16 1 -30 -2 -31 -7z"/>
<path d="M5364 3552 c-5 -4 -9 -26 -9 -49 2 -38 -1 -43 -20 -43 -16 0 -21 -6
-20 -22 1 -13 7 -24 13 -24 7 -1 15 -2 20 -3 4 0 7 -40 6 -88 0 -74 3 -92 20
-110 20 -23 68 -31 93 -15 18 12 12 51 -7 47 -34 -7 -41 9 -38 91 3 76 4 79
27 79 17 0 25 6 27 23 3 19 -1 22 -26 22 -27 0 -29 2 -32 47 -2 37 -7 47 -23
49 -11 2 -25 0 -31 -4z"/>
<path d="M3917 3447 c-88 -50 -83 -201 9 -246 46 -23 108 -18 154 13 47 31 49
39 14 54 -20 10 -30 9 -47 -3 -41 -29 -104 -14 -120 28 -7 20 -8 20 110 18 91
-1 91 -1 64 81 -23 69 -113 96 -184 55z m99 -40 c12 -4 24 -17 27 -27 5 -18 0
-20 -59 -20 -61 0 -64 1 -54 20 19 35 41 42 86 27z"/>
<path d="M4296 3447 c-22 -16 -26 -16 -26 -3 0 11 -9 16 -30 16 l-30 0 0 -135
0 -135 30 0 30 0 0 73 c0 85 14 118 55 132 29 9 33 20 26 63 -2 15 -27 10 -55
-11z"/>
<path d="M4490 3452 c-87 -43 -89 -200 -2 -233 28 -11 84 -8 114 5 13 6 16 3
14 -19 -4 -34 -15 -45 -53 -49 -21 -3 -37 1 -47 13 -9 10 -32 18 -51 19 -40 2
-39 2 -23 -33 16 -35 65 -54 127 -50 99 7 113 32 113 196 0 171 3 159 -32 159
-16 0 -30 -5 -30 -10 0 -6 -13 -4 -30 5 -37 19 -57 19 -100 -3z m100 -52 c11
-6 22 -26 26 -45 9 -49 -16 -85 -58 -85 -42 0 -68 25 -68 67 0 57 51 89 100
63z"/>
<path d="M4844 3459 c-35 -10 -48 -23 -58 -56 -7 -21 -4 -23 26 -23 22 0 37 7
46 20 15 24 54 26 77 4 20 -21 11 -31 -38 -38 -85 -13 -127 -45 -127 -98 0
-61 64 -94 138 -72 23 6 42 8 42 3 0 -5 15 -9 33 -9 l32 0 -5 117 c-3 65 -9
123 -13 130 -9 14 -71 33 -102 32 -11 0 -34 -5 -51 -10z m102 -161 c-3 -13 -5
-26 -5 -31 -2 -13 -54 -28 -79 -22 -37 9 -26 47 18 62 55 19 71 17 66 -9z"/>
<path d="M5235 3462 c-11 -2 -28 -11 -37 -20 -16 -14 -18 -14 -18 1 0 12 -9
17 -30 17 l-30 0 0 -134 0 -135 30 1 30 1 0 71 c0 84 15 117 55 131 23 8 30
16 30 37 0 32 -4 36 -30 30z"/>
<path d="M5621 3459 c-83 -32 -109 -164 -45 -230 54 -57 143 -59 202 -6 27 25
28 33 1 47 -16 9 -26 8 -44 -4 -33 -22 -81 -20 -105 4 -40 40 -27 44 108 40
l62 -1 0 33 c-1 88 -94 149 -179 117z m103 -71 l18 -23 -62 -3 c-34 -2 -65 0
-69 3 -3 4 6 17 21 30 33 28 65 25 92 -7z"/>
<path d="M5995 3454 c-19 -10 -31 -11 -33 -5 -2 6 -18 11 -36 11 l-32 0 1
-132 0 -133 30 0 30 0 5 88 c4 77 8 91 27 107 23 18 58 17 70 -3 3 -5 7 -51 7
-101 l2 -91 29 0 30 0 0 112 c0 101 -2 115 -21 133 -28 28 -72 34 -109 14z"/>
<path d="M3698 3453 c-3 -5 -4 -64 -4 -133 l1 -125 30 0 30 0 3 133 3 132 -30
0 c-16 0 -31 -3 -33 -7z"/>
<path d="M2030 3199 c-44 -14 -60 -27 -60 -49 0 -20 45 -62 91 -86 26 -13 32
-13 57 0 45 23 94 74 90 93 -7 37 -112 62 -178 42z"/>
<path d="M3349 2986 c-1 -6 -2 -90 -3 -186 -2 -187 0 -192 49 -182 20 3 22 10
20 52 -2 41 2 54 28 86 36 43 34 44 95 -68 20 -38 43 -68 52 -69 8 0 25 -2 38
-3 12 -2 22 2 22 7 0 6 -27 59 -61 119 -66 117 -65 110 -14 166 82 90 81 89
34 88 -43 -1 -51 -8 -170 -149 l-24 -28 0 81 c1 44 -2 84 -5 89 -8 11 -60 9
-61 -3z"/>
<path d="M3720 2808 l0 -188 33 0 34 0 -1 187 -1 186 -32 2 -33 1 0 -188z"/>
<path d="M4585 2890 c-47 -10 -73 -28 -90 -61 -54 -102 8 -219 114 -219 40 0
91 21 114 48 18 20 18 21 -12 37 -17 8 -31 12 -31 7 0 -15 -43 -29 -75 -26
-30 3 -69 39 -60 54 3 5 47 8 97 8 59 -1 93 3 96 10 7 21 -18 89 -40 109 -31
27 -77 41 -113 33z m69 -72 c11 -16 12 -24 4 -29 -11 -7 -106 -4 -114 3 -2 3
5 14 16 26 27 29 74 29 94 0z"/>
<path d="M3922 2871 c-18 -12 -37 -33 -43 -49 -17 -41 -13 -116 6 -150 36 -60
127 -79 196 -40 50 28 55 44 19 63 -17 9 -30 11 -30 6 0 -15 -56 -32 -83 -26
-21 6 -57 42 -57 58 0 3 43 5 96 5 52 0 98 2 101 5 12 13 -10 80 -36 109 -37
41 -118 50 -169 19z m122 -53 c9 -12 16 -25 16 -28 0 -3 -27 -5 -60 -5 -63 0
-71 7 -43 37 23 25 68 23 87 -4z"/>
<path d="M4185 2873 c3 -9 22 -69 42 -134 l37 -119 35 0 36 0 40 118 c22 64
40 124 40 132 0 10 -10 15 -29 15 -27 0 -30 -4 -52 -75 -13 -41 -24 -82 -24
-89 0 -25 -16 1 -30 49 -17 54 -17 57 -19 73 -3 25 -20 39 -50 42 -25 2 -31
-1 -26 -12z"/>
</g>
</svg>
