<svg xmlns="http://www.w3.org/2000/svg" fill="#fff" height="48" viewBox="0 -960 960 960" width="48"><path d="M480-451.269q-30.724 0-50.516-21.048-19.792-21.048-19.792-52.068v-244.384q0-29.071 20.233-49.574 20.233-20.503 50.016-20.503 29.783 0 50.075 20.503t20.292 49.574v244.384q0 31.02-19.792 52.068T480-451.269Zm-14.654 310.346v-147.154q-94.231-6.654-159.327-74.413t-65.096-161.895h30.192q0 86.633 60.962 146.798 60.962 60.164 147.455 60.164 86.492 0 147.922-60.287 61.431-60.287 61.431-146.675h30.192q0 94.231-65.096 161.943-65.096 67.711-158.442 74.405v147.114h-30.193Z"/></svg>