<?xml version="1.0" encoding="UTF-8" standalone="no"?>
<!-- Created with Inkscape (http://www.inkscape.org/) -->

<svg
   width="800"
   height="800"
   viewBox="0 0 211.66684 211.66673"
   version="1.1"
   id="redPanda_Avatar"
   xml:space="preserve"
   inkscape:version="1.2.2 (732a01da63, 2022-12-09)"
   sodipodi:docname="Roter_Panda_Avatar_neu.svg"
   xmlns:inkscape="http://www.inkscape.org/namespaces/inkscape"
   xmlns:sodipodi="http://sodipodi.sourceforge.net/DTD/sodipodi-0.dtd"
   xmlns="http://www.w3.org/2000/svg"
   xmlns:svg="http://www.w3.org/2000/svg"
   xmlns:rdf="http://www.w3.org/1999/02/22-rdf-syntax-ns#"
   xmlns:cc="http://creativecommons.org/ns#"
   xmlns:dc="http://purl.org/dc/elements/1.1/">
             <title
   id="title913">Roter_Panda_Avatar</title>
             <sodipodi:namedview
   id="namedview7"
   pagecolor="#ffffff"
   bordercolor="#cccccc"
   borderopacity="1"
   inkscape:showpageshadow="0"
   inkscape:pageopacity="0"
   inkscape:pagecheckerboard="true"
   inkscape:deskcolor="#d1d1d1"
   inkscape:document-units="px"
   showgrid="false"
   inkscape:zoom="0.942768"
   inkscape:cx="159.10595"
   inkscape:cy="328.28861"
   inkscape:window-width="1920"
   inkscape:window-height="1017"
   inkscape:window-x="-8"
   inkscape:window-y="-8"
   inkscape:window-maximized="1"
   inkscape:current-layer="layer10"
   showborder="false"
   borderlayer="false" />
             <defs
   id="defs2" />
             <g
   inkscape:groupmode="layer"
   id="redPanda_tail"
   inkscape:label="tail"
   style="display:inline"
   transform="translate(-3.325)">
               <path
   style="fill:#f47b20;fill-opacity:1;fill-rule:evenodd;stroke:#000000;stroke-width:2.128;stroke-linecap:round;stroke-dasharray:none;stroke-opacity:1"
   d="m 83.810003,190.98224 -1.442534,7.19414 c 0,0 -51.931208,1.02774 -70.065916,-70.29705 -18.134707,-71.324796 39.360561,-73.996906 43.276008,-42.959318 3.915449,31.037558 2.472914,34.120768 7.006592,48.303538 4.533677,14.18275 12.570649,17.47149 12.570649,17.47149 0,0 -3.503297,14.18274 -0.412154,22.61017 3.091143,8.42742 2.060763,6.1664 9.067355,17.67703 z"
   id="path5573"
   inkscape:label="tailbody" />
               <path
   style="fill:#642b00;fill-opacity:1;fill-rule:evenodd;stroke:none;stroke-width:2.128;stroke-linecap:round;stroke-dasharray:none;stroke-opacity:1"
   d="M 9.2137798,94.868 C 24.162728,85.08034 39.687261,83.051851 56.226221,90.207423 54.561193,75.965091 49.019653,65.618765 32.653789,66.151197 14.086873,69.520778 12.741676,82.823885 9.2137798,94.868 Z"
   id="path5703"
   sodipodi:nodetypes="cccc"
   inkscape:label="stripe" />
               <path
   style="display:inline;fill:#642b00;fill-opacity:1;fill-rule:evenodd;stroke:none;stroke-width:2.428;stroke-linecap:round;stroke-dasharray:none;stroke-opacity:1"
   d="m 60.252943,118.43883 c -16.550691,-2.80557 -32.45792,1.14521 -47.95139,9.4405 L 9.8407195,110.37252 C 26.700979,99.061436 41.373531,98.344952 56.168509,101.71674 Z"
   id="path5715"
   sodipodi:nodetypes="ccccc" />
               <path
   style="display:inline;fill:#642b00;fill-opacity:1;fill-rule:evenodd;stroke:none;stroke-width:2.10934;stroke-linecap:round;stroke-dasharray:none;stroke-opacity:1"
   d="M 75.154802,150.69504 C 65.950635,160.7557 56.966207,173.57874 49.465648,186.7366 L 38.887715,178.16427 C 46.26287,161.76764 57.475641,151.62178 70.187127,146.3041 Z"
   id="path5843"
   sodipodi:nodetypes="ccccc" />
               <path
   style="display:inline;fill:#642b00;fill-opacity:1;fill-rule:evenodd;stroke:none;stroke-width:2.23842;stroke-linecap:round;stroke-dasharray:none;stroke-opacity:1"
   d="M 64.387149,137.96008 C 49.12046,140.11325 35.916327,149.41625 23.25805,159.43124 l -6.351049,-14.43181 c 13.421415,-10.9162 28.997815,-14.59867 43.345942,-18.31078 z"
   id="path5845"
   sodipodi:nodetypes="ccccc" />
               <path
   style="fill:none;fill-opacity:1;fill-rule:evenodd;stroke:#000000;stroke-width:2.428;stroke-linecap:round;stroke-dasharray:none;stroke-opacity:1"
   d="m 83.810003,190.98224 -1.442534,7.19414 c 0,0 -51.931208,1.02774 -70.065916,-70.29705 -18.134707,-71.324796 39.360561,-73.996906 43.276008,-42.959318 3.915449,31.037558 2.472914,34.120768 7.006592,48.303538 4.533677,14.18275 12.570649,17.47149 12.570649,17.47149 0,0 -3.503297,14.18274 -0.412154,22.61017 3.091143,8.42742 2.060763,6.1664 9.067355,17.67703 z"
   id="path5705"
   inkscape:label="tail_outline" />
             </g>
             <g
   inkscape:groupmode="layer"
   id="redPanda_body"
   inkscape:label="body"
   style="display:inline"
   transform="translate(-3.325)">
               <path
   style="fill:#241c1c;fill-rule:evenodd;stroke:#000000;stroke-width:3.028;stroke-linecap:round"
   d="m 151.99284,200.2255 -32.83549,0.70161 c -6.32261,1.30158 -11.1159,4.1325 -19.78552,3.0871 -5.051614,1.0768 -10.103227,0.55844 -15.154841,-2.10484 -2.191393,-3.55843 -3.761722,-7.15825 -0.420968,-11.08549 -20.593411,-24.11305 -7.023285,-58.92404 15.295166,-89.66621 30.220413,12.62888 60.615183,13.74922 91.209723,1.68388 12.44825,26.5014 16.72979,53.48314 10.10323,81.10653 10.48451,9.05699 8.92154,14.89 -7.15645,16.83871 z"
   id="path1058"
   sodipodi:nodetypes="cccccccccc"
   inkscape:label="lower_body" />
               <path
   style="display:inline;fill:#f47b20;fill-opacity:1;fill-rule:evenodd;stroke:none;stroke-width:1.81;stroke-linecap:round;stroke-dasharray:none;stroke-opacity:1"
   d="m 79.934512,182.82174 c 5.317751,-44.05551 21.331408,-65.78918 43.838178,-73.97199 16.19285,3.87504 27.51276,4.80181 45.16017,1.36889 10.29116,-2.21983 24.65454,12.75305 34.53365,44.78432 -2.80222,-17.11026 -4.85896,-32.12523 -11.42388,-51.81061 l -91.20972,-1.68387 c -34.206484,36.56197 -26.177609,72.60216 -20.898398,81.31326 z"
   id="path3202"
   sodipodi:nodetypes="ccccccc"
   inkscape:label="upper_body" />
               <path
   style="display:inline;fill:none;fill-rule:evenodd;stroke:#000000;stroke-width:3.028;stroke-linecap:round"
   d="m 151.99284,200.2255 -32.83549,0.70161 c -6.32261,1.30158 -11.1159,4.1325 -19.78552,3.0871 -5.051614,1.0768 -10.103227,0.55844 -15.154841,-2.10484 -2.191393,-3.55843 -3.761722,-7.15825 -0.420968,-11.08549 -20.593411,-24.11305 -7.023285,-58.92404 15.295166,-89.66621 30.220413,12.62888 60.615183,13.74922 91.209723,1.68388 12.44825,26.5014 16.72979,53.48314 10.10323,81.10653 10.48451,9.05699 8.92154,14.89 -7.15645,16.83871 z"
   id="path3284"
   sodipodi:nodetypes="cccccccccc"
   inkscape:label="body-outline" />
               <g
   id="g3193"
   inkscape:label="left_foot_compl"
   transform="translate(4.233102,-5.6277856)">
                 <path
   style="fill:#241c1c;fill-opacity:1;fill-rule:evenodd;stroke:#000000;stroke-width:3.028;stroke-linecap:round"
   d="m 98.085504,158.30092 c -1.467248,12.59238 -0.535197,24.90248 4.350006,36.74751 3.87669,8.84902 7.79957,17.4496 13.33064,17.4 6.03387,3.12337 12.06775,2.48939 18.10162,2.38549 5.70056,-1.24993 9.40558,-3.99961 10.24522,-8.90273 1.84565,-4.41862 -1.1719,-8.02671 -3.65006,-11.7247 -5.43836,-12.53549 -0.87314,-25.07097 -0.98226,-37.60646 v 0"
   id="path1068"
   sodipodi:nodetypes="cccccccc"
   inkscape:label="left_foot" />
                 <ellipse
   style="fill:#ffffff;fill-opacity:1;fill-rule:evenodd;stroke:#000000;stroke-width:1.56172;stroke-linecap:round;stroke-dasharray:none"
   id="path1122"
   cx="65.216965"
   cy="231.84196"
   rx="1.1816397"
   ry="3.3721108"
   transform="matrix(0.98061545,-0.19594219,0.25043618,0.96813311,0,0)" />
                 <ellipse
   style="fill:#ffffff;fill-opacity:1;fill-rule:evenodd;stroke:#000000;stroke-width:1.68459;stroke-linecap:round;stroke-dasharray:none"
   id="ellipse1230"
   cx="61.50761"
   cy="232.02917"
   rx="1.3827989"
   ry="3.411551"
   transform="matrix(0.98589125,-0.1673871,0.29124019,0.95664996,0,0)"
   inkscape:transform-center-x="-0.21048392"
   inkscape:transform-center-y="2.2451618" />
                 <ellipse
   style="fill:#ffffff;fill-opacity:1;fill-rule:evenodd;stroke:#000000;stroke-width:1.70154;stroke-linecap:round;stroke-dasharray:none"
   id="ellipse1232"
   cx="68.40963"
   cy="232.25389"
   rx="1.4126509"
   ry="3.4995527"
   transform="matrix(0.98576276,-0.16814217,0.29000796,0.95702423,0,0)" />
                 <ellipse
   style="fill:#ffffff;fill-opacity:1;fill-rule:evenodd;stroke:#000000;stroke-width:2.03366;stroke-linecap:round;stroke-dasharray:none"
   id="ellipse1234"
   cx="109.85535"
   cy="170.00218"
   rx="1.8956534"
   ry="2.9954686"
   transform="matrix(0.91965226,0.39273365,0.22928574,0.97335916,0,0)" />
               </g>
               <g
   id="g3200"
   inkscape:label="right_foot_compl"
   transform="translate(4.233102,-5.6277856)">
                 <path
   style="fill:#241c1c;fill-rule:evenodd;stroke:#000000;stroke-width:3.028;stroke-linecap:round"
   d="m 156.31939,155.7581 c 0.51049,13.42389 2.01606,26.92432 -2.10484,39.99194 -0.9809,3.32636 -3.89715,6.16889 -2.2154,10.16091 0.27379,6.77893 8.78638,7.44509 15.82669,9.20361 14.66856,-2.61 16.86391,-5.6956 21.18872,-8.7 3.59978,-5.6129 6.17321,-11.22581 7.15645,-16.83871"
   id="path1066"
   sodipodi:nodetypes="cccccc"
   inkscape:label="right_foot" />
                 <ellipse
   style="fill:#ffffff;fill-opacity:1;fill-rule:evenodd;stroke:#000000;stroke-width:1.89414;stroke-linecap:round;stroke-dasharray:none"
   id="ellipse1236"
   cx="276.99725"
   cy="179.68471"
   rx="1.5600175"
   ry="3.5447297"
   transform="matrix(0.96952265,0.24500169,-0.61895357,0.78542757,0,0)" />
                 <ellipse
   style="fill:#ffffff;fill-opacity:1;fill-rule:evenodd;stroke:#000000;stroke-width:1.87019;stroke-linecap:round;stroke-dasharray:none"
   id="ellipse1238"
   cx="272.52679"
   cy="170.47862"
   rx="1.5618863"
   ry="3.7264202"
   transform="matrix(0.96415199,0.26535061,-0.58621493,0.81015558,0,0)" />
                 <ellipse
   style="fill:#ffffff;fill-opacity:1;fill-rule:evenodd;stroke:#000000;stroke-width:1.85431;stroke-linecap:round;stroke-dasharray:none"
   id="ellipse1240"
   cx="271.38501"
   cy="163.5938"
   rx="1.4481899"
   ry="3.5964751"
   transform="matrix(0.9593042,0.28237467,-0.56034896,0.82825663,0,0)" />
                 <ellipse
   style="fill:#ffffff;fill-opacity:1;fill-rule:evenodd;stroke:#000000;stroke-width:1.76777;stroke-linecap:round;stroke-dasharray:none"
   id="ellipse1242"
   cx="276.89886"
   cy="188.22328"
   rx="1.6238096"
   ry="3.3807933"
   transform="matrix(0.98300203,0.18359468,-0.51544558,0.85692232,0,0)" />
               </g>
             <rect
   style="fill:#f47b20;fill-opacity:1;fill-rule:evenodd;stroke-width:2.07982;stroke-linecap:round"
   id="rect646"
   width="86.428802"
   height="12.928786"
   x="101.17472"
   y="98.765602" /><rect
   style="fill:#f47b20;fill-opacity:1;fill-rule:evenodd;stroke-width:3.5904;stroke-linecap:round"
   id="rect756"
   width="4.7475176"
   height="2.0630283"
   x="105.16998"
   y="-150.13013"
   transform="matrix(-0.44696963,0.89454913,-0.99917164,-0.04069436,0,0)"
   inkscape:transform-center-x="0.24489652"
   inkscape:transform-center-y="-0.1253069"
   ry="0.94708878" /><rect
   style="display:inline;fill:#f47b20;fill-opacity:1;fill-rule:evenodd;stroke-width:3.88063;stroke-linecap:round"
   id="rect756-4"
   width="5.157321"
   height="2.2185383"
   x="-219.30669"
   y="76.065857"
   transform="matrix(-0.64827325,-0.76140777,0.61035783,-0.79212582,0,0)"
   inkscape:transform-center-x="-0.28696507"
   inkscape:transform-center-y="-0.15242145"
   ry="1.0184798" /><ellipse
   style="fill:#241c1c;fill-opacity:1;fill-rule:evenodd;stroke-width:1.75064;stroke-linecap:round"
   id="path1484"
   cx="147.2095"
   cy="112.24804"
   rx="30.368044"
   ry="3.1545901" /></g>
             <g
   inkscape:groupmode="layer"
   id="redPanda_head"
   inkscape:label="head"
   style="display:inline"
   transform="translate(-3.325)">
               <g
   inkscape:groupmode="layer"
   id="layer10"
   inkscape:label="head_outline"
   style="display:inline">
                 <path
   style="fill:#f47b20;fill-opacity:1;fill-rule:evenodd;stroke:none;stroke-width:2.428;stroke-linecap:round;stroke-dasharray:none;stroke-opacity:1"
   d="m 87.103453,78.711824 c 0,0 -1.190676,33.934256 58.343197,32.545126 59.53384,-1.38912 60.2795,-24.107659 62.11364,-31.552895 1.8932,-7.684977 -3.93123,-26.078292 -5.762,-32.278522 -2.56396,-8.683318 3.92461,-17.968781 -2.17584,-33.804045 -5.5116,-14.30672764 -32.9952,5.287884 -32.9952,5.287884 -4.87926,-1.62642 -28.73009,-4.656691 -38.84024,0.348741 -9.92927,-8.630627 -20.6149,-13.078489 -30.727202,-9.256807 -9.710101,9.100741 -8.050089,27.419641 -4.261607,41.174656 -3.944764,9.276074 -5.677575,18.446816 -5.694748,27.535862 z"
   id="path6008"
   sodipodi:nodetypes="cssssccccc"
   inkscape:label="Gesicht_Füllung" />


                 <ellipse
   style="fill:#ffffff;fill-opacity:1;fill-rule:evenodd;stroke:none;stroke-width:2.68295;stroke-linecap:round;stroke-dasharray:none;stroke-opacity:1"
   id="path6220"
   cx="145.3824"
   cy="87.745743"
   rx="29.648287"
   ry="24.247494" />


                 <g
   id="g3064"
   inkscape:label="left_ear"
   style="display:inline"
   transform="translate(4.233102,-5.6277856)">
                   <path
   style="display:inline;fill:#ffffff;fill-opacity:1;fill-rule:evenodd;stroke:none;stroke-width:1.81;stroke-linecap:round;stroke-dasharray:none"
   d="M 123.76454,26.380651 C 115.78208,15.45361 97.069737,11.302862 91.560504,17.049198 81.783683,29.686536 85.575644,46.804527 89.73631,58.163723 96.027771,42.71642 105.88178,29.332498 123.76454,26.380651 Z"
   id="path2871"
   sodipodi:nodetypes="cccc"
   inkscape:label="outer_left_ear" />
                   <path
   style="fill:#642b00;fill-opacity:1;fill-rule:evenodd;stroke:none;stroke-width:1.81;stroke-linecap:round;stroke-dasharray:none"
   d="M 94.199179,49.317143 C 97.241728,41.968955 105.84215,32.643621 117.02021,28.101052 111.62147,23.534266 103.31153,15.920538 96.270553,20.225188 89.321214,24.784701 91.980301,42.573638 94.199179,49.317143 Z"
   id="path2936"
   sodipodi:nodetypes="cccc" />
                   <ellipse
   style="fill:#642b00;fill-opacity:1;fill-rule:evenodd;stroke:none;stroke-width:3.76544;stroke-linecap:round;stroke-dasharray:none"
   id="path3053"
   cx="58.618435"
   cy="69.578392"
   rx="2.5981138"
   ry="1.4248884"
   transform="matrix(0.86666447,-0.49889147,0.65877031,0.75234412,0,0)" />
                 </g>
                 <g
   id="g3069"
   inkscape:label="right_ear"
   style="display:inline"
   transform="translate(4.233102,-5.6277856)">
                   <path
   style="fill:#ffffff;fill-opacity:1;fill-rule:evenodd;stroke:none;stroke-width:1.81;stroke-linecap:round;stroke-dasharray:none"
   d="m 160.95186,25.324926 c 16.55565,1.305583 26.41051,10.086086 34.60829,25.603324 3.03173,-11.56724 6.16437,-31.113571 -3.11993,-36.906549 -9.81781,-2.456274 -21.67725,3.071017 -31.48836,11.303225 z"
   id="path3055"
   sodipodi:nodetypes="cccc" />
                   <path
   style="fill:#642b00;fill-opacity:1;fill-rule:evenodd;stroke:none;stroke-width:1.81;stroke-linecap:round;stroke-dasharray:none"
   d="m 168.98587,26.67447 c 10.86934,3.585586 19.03352,11.806225 23.05139,18.209868 2.21191,-6.955484 3.12741,-21.798001 -0.51558,-25.312588 -4.02425,-4.473983 -13.77862,1.751657 -22.53581,7.10272 z"
   id="path3057"
   sodipodi:nodetypes="cccc" />
                   <path
   style="fill:#642b00;fill-opacity:1;fill-rule:evenodd;stroke:none;stroke-width:1.28776;stroke-linecap:round;stroke-dasharray:none"
   id="path3059"
   transform="matrix(0.91776562,0.39712248,-0.72370577,0.69010866,0,0)"
   sodipodi:type="arc"
   sodipodi:cx="157.49496"
   sodipodi:cy="-60.784698"
   sodipodi:rx="2.0431488"
   sodipodi:ry="0.94609147"
   sodipodi:start="0"
   sodipodi:end="0.43223207"
   sodipodi:arc-type="slice"
   d="m 159.53811,-60.784698 a 2.0431488,0.94609147 0 0 1 -0.1879,0.396316 l -1.85525,-0.396316 z" />
                 </g>



                 <path
   style="display:inline;fill:#ffffff;fill-opacity:1;fill-rule:evenodd;stroke:none;stroke-width:1.81;stroke-linecap:round"
   d="m 95.734461,71.523599 c 6.042449,-4.734321 9.128699,-3.982991 18.242949,-2.104841 6.9507,14.621787 57.40938,12.094939 63.69905,0.0073 15.08343,-4.061021 20.03987,-0.523106 21.49258,2.442902 8.76491,12.433988 7.97858,21.577809 -8.00227,29.63952 l -90.1535,-1.603217 C 86.916251,94.9982 86.590945,82.445328 95.734461,71.523599 Z"
   id="path1314"
   sodipodi:nodetypes="ccccccc" />
                 <path
   style="fill:#642b00;fill-opacity:1;fill-rule:evenodd;stroke:none;stroke-width:1.81;stroke-linecap:round"
   d="m 121.56262,73.308293 c -1.74251,-3.726172 -4.9524,-3.273668 -7.58521,-3.889514 -9.03573,7.713871 -13.47034,17.908147 -12.96414,30.486484 9.70287,7.134627 20.48465,8.581217 31.09088,9.520187 -17.27071,-9.39208 -19.36599,-22.264365 -10.54153,-36.117157 z"
   id="path689"
   sodipodi:nodetypes="ccccc" />
                 <path
   style="fill:#642b00;fill-opacity:1;fill-rule:evenodd;stroke:none;stroke-width:1.81;stroke-linecap:round"
   d="m 169.49541,73.637436 c 1.25469,-2.105443 3.15214,-3.427361 8.18105,-4.211378 10.26119,8.722875 12.49142,24.739958 13.49031,32.082422 -12.96764,6.09452 -19.90506,5.81628 -32.46208,7.91697 15.38733,-7.24258 18.57187,-19.990932 10.79072,-35.788014 z"
   id="path1310"
   sodipodi:nodetypes="ccccc" />
                 <path
   style="display:inline;fill:none;fill-opacity:1;fill-rule:evenodd;stroke:#000000;stroke-width:3.028;stroke-linecap:round;stroke-dasharray:none;stroke-opacity:1"
   d="m 87.103453,78.711824 c 0,0 -1.190676,33.934256 58.343197,32.545126 59.53384,-1.38912 60.2795,-24.107659 62.11364,-31.552895 1.8932,-7.684977 -3.93123,-26.078292 -5.762,-32.278522 -2.56396,-8.683318 5.60848,-19.372008 -0.49197,-35.207272 -5.5116,-14.3067275 -36.33184,5.849274 -36.33184,5.849274 -4.87926,-1.62642 -27.07732,-3.814854 -37.18747,1.190578 -9.92927,-8.630627 -21.65674,-14.244361 -30.727202,-9.256807 -10.553498,7.066667 -8.050089,27.419641 -4.261607,41.174656 -3.944764,9.276074 -5.677575,18.446816 -5.694748,27.535862 z"
   id="path6289"
   sodipodi:nodetypes="cssssccccc"
   inkscape:label="Gesicht_Outline" />
               </g>

               <g
   inkscape:groupmode="layer"
   id="redPanda_closed_eyes"
   inkscape:label="closed_eyes"
   transform="translate(-7.5774209,65.670983)"
   style="display:inline">
                 <path
   style="fill:none;fill-opacity:1;fill-rule:evenodd;stroke:#000000;stroke-width:2.052;stroke-linecap:round;stroke-dasharray:none;stroke-opacity:1"
   d="m 120.14023,0.55255054 c 5.50499,-5.74597714 10.61421,-4.71807714 15.50782,0"
   id="path5406"
   sodipodi:nodetypes="cc"
   inkscape:label="left_eye_closed" />
                 <path
   style="fill:none;fill-opacity:1;fill-rule:evenodd;stroke:#000000;stroke-width:2.052;stroke-linecap:round;stroke-dasharray:none;stroke-opacity:1"
   d="m 170.84297,0.55255024 c 5.50499,-5.74597684 10.61421,-4.71807684 15.50782,0"
   id="path5408"
   sodipodi:nodetypes="cc"
   inkscape:label="rigth_eye_closed" />
               </g>
               <g
   inkscape:groupmode="layer"
   id="redPanda_open_eyes"
   inkscape:label="open_eyes"
   transform="translate(-7.5774209,63.554315)"
   style="display:inline">
                 <g
   id="g834"
   inkscape:label="left_Eye"
   style="display:inline"
   transform="translate(4.233102,-5.6277856)">
                   <ellipse
   style="display:inline;fill:#000000;fill-rule:evenodd;stroke-width:0.264583"
   id="path714"
   cx="124.3148"
   cy="7.7417293"
   rx="7.7539101"
   ry="8.6820192" />
                   <ellipse
   style="display:inline;fill:#ffffff;fill-rule:evenodd;stroke-width:0.148224"
   id="path774"
   cx="121.91613"
   cy="3.9193115"
   rx="1.6867976"
   ry="1.9348499" />
                 </g>
                 <g
   id="g838"
   inkscape:label="right_eye"
   style="display:inline"
   transform="translate(4.233102,-5.6277856)">
                   <ellipse
   style="display:inline;fill:#000000;fill-opacity:1;fill-rule:evenodd;stroke:none;stroke-width:0.264583"
   id="ellipse716"
   cx="174.36375"
   cy="7.7417293"
   rx="7.7539101"
   ry="8.6820192" />
                   <ellipse
   style="fill:#ffffff;fill-rule:evenodd;stroke-width:0.148224"
   id="ellipse830"
   cx="172.22223"
   cy="3.9193115"
   rx="1.6867976"
   ry="1.9348499" />
                 </g>
               </g>
               <g
   inkscape:groupmode="layer"
   id="redPanda_open_mouth"
   inkscape:label="open_mouth"
   style="display:inline">
                 <ellipse
   style="display:inline;fill:#800000;fill-rule:evenodd;stroke:none;stroke-width:0.751999;stroke-linecap:butt;stroke-dasharray:none;stroke-opacity:1"
   id="ellipse5217"
   cx="153.33086"
   cy="81.145988"
   rx="1.9100441"
   ry="2.107542" />
                 <ellipse
   style="display:inline;fill:#800000;fill-rule:evenodd;stroke:none;stroke-width:0.751999;stroke-linecap:butt;stroke-dasharray:none;stroke-opacity:1"
   id="path5209"
   cx="133.75"
   cy="75.467842"
   rx="1.9100441"
   ry="2.107542" />
                 <ellipse
   style="display:inline;fill:#800000;fill-rule:evenodd;stroke:none;stroke-width:0.950087;stroke-linecap:butt;stroke-dasharray:none;stroke-opacity:1"
   id="ellipse5211"
   cx="158.70461"
   cy="75.545898"
   rx="2.1581018"
   ry="2.9774201" />
                 <ellipse
   style="display:inline;fill:#800000;fill-rule:evenodd;stroke:none;stroke-width:0.751999;stroke-linecap:butt;stroke-dasharray:none;stroke-opacity:1"
   id="ellipse5215"
   cx="138.59624"
   cy="79.982491"
   rx="1.9100441"
   ry="2.107542" />
                 <rect
   style="fill:#800000;fill-rule:evenodd;stroke:none;stroke-width:0.636989;stroke-linecap:butt;stroke-dasharray:none;stroke-opacity:1"
   id="rect4370"
   width="13.436356"
   height="7.427855"
   x="133.97499"
   y="69.792213"
   transform="matrix(0.99964526,0.02663358,-0.00254095,0.99999677,0,0)" />
                 <rect
   style="fill:#800000;fill-rule:evenodd;stroke:none;stroke-width:0.297049;stroke-linecap:butt;stroke-dasharray:none;stroke-opacity:1"
   id="rect5150"
   width="4.5932751"
   height="4.7251267"
   x="143.45157"
   y="71.359528" />
                 <rect
   style="fill:#800000;fill-rule:evenodd;stroke:none;stroke-width:0.636989;stroke-linecap:butt;stroke-dasharray:none;stroke-opacity:1"
   id="rect5152"
   width="13.436356"
   height="7.427855"
   x="144.64453"
   y="69.508041"
   transform="matrix(0.99964526,0.02663358,-0.00254095,0.99999677,0,0)" />
                 <path
   style="fill:#ff5555;fill-rule:evenodd;stroke:#000000;stroke-width:0.940846;stroke-linecap:butt;stroke-dasharray:none;stroke-opacity:1"
   d="m 137.93065,83.101875 c 0,0 3.65048,-6.000884 8.25346,-5.324489 4.60298,0.676403 7.3809,5.281869 7.3809,5.281869"
   id="path4252"
   inkscape:label="Zunge" />



                 <path
   style="display:inline;fill:none;fill-rule:evenodd;stroke:#000000;stroke-width:2.152;stroke-linecap:round;stroke-dasharray:none;stroke-opacity:1"
   d="m 161.37217,69.905469 v 2e-6 c 0,0 0.88322,13.856147 -15.39864,14.104207 -16.28186,0.24806 -14.78155,-14.455128 -14.78155,-14.455128"
   id="path3524"
   sodipodi:nodetypes="ccsc" />
               </g>
               <g
   inkscape:groupmode="layer"
   id="redPanda_closed_mouth"
   inkscape:label="closed_mouth"
   style="display:inline">
                 <rect
   style="display:inline;fill:#ffffff;fill-rule:evenodd;stroke-width:1.63936;stroke-linecap:round"
   id="rect462"
   width="32.571693"
   height="17.582285"
   x="129.0966"
   y="67.590996" />
                 <ellipse
   style="display:inline;fill:#ffffff;fill-rule:evenodd;stroke-width:3.62581;stroke-linecap:round"
   id="path573"
   cx="160.8627"
   cy="76.466949"
   rx="4.3162007"
   ry="8.0432863" /><path
   style="fill:#ffffff;fill-opacity:1;fill-rule:evenodd;stroke:#000000;stroke-width:2.362;stroke-linecap:round;stroke-dasharray:none;stroke-opacity:1"
   d="m 146.56348,84.371226 c 0,0 1.10283,4.723628 5.74292,4.807637 5.61904,0.101732 8.23742,-2.573636 9.06577,-4.456716"
   id="path2775"
   sodipodi:nodetypes="csc" />
                 <path
   style="fill:#ffffff;fill-rule:evenodd;stroke:#000000;stroke-width:2.362;stroke-linecap:round;stroke-dasharray:none;stroke-opacity:1"
   d="m 131.19198,84.371226 c 0,0 1.10283,4.723628 5.74292,4.807637 5.61904,0.101732 8.23742,-2.573636 9.06577,-4.456716"
   id="path3512"
   sodipodi:nodetypes="csc" />
                 <path
   style="fill:none;fill-rule:evenodd;stroke:#000000;stroke-width:2.752;stroke-linecap:square;stroke-dasharray:none;stroke-opacity:1"
   d="m 146.27884,80.252743 0.028,3.367626"
   id="path3514" />
               </g>
               <g
   inkscape:groupmode="layer"
   id="redPanda_nose"
   inkscape:label="nose"
   transform="translate(-6.7354852,65.670984)"
   style="display:inline">
                 <ellipse
   style="display:inline;fill:#000000;fill-rule:evenodd;stroke-width:0.375324"
   id="path841"
   ry="3.4884791"
   rx="9.227746"
   cy="7.3074808"
   cx="153.81183" />
                 <ellipse
   style="fill:#000000;fill-rule:evenodd;stroke-width:0.206352"
   id="path895"
   cx="153.81183"
   cy="9.2889481"
   rx="4.1263108"
   ry="4.924221" />
                 <ellipse
   style="fill:#000000;fill-rule:evenodd;stroke-width:0.353971"
   id="path897"
   cx="123.96915"
   cy="39.142929"
   rx="3.4450004"
   ry="5.6110754"
   inkscape:transform-center-x="-0.024350195"
   inkscape:transform-center-y="0.079548036"
   transform="matrix(0.98953389,-0.14430065,0.69746907,0.71661489,0,0)" />
                 <ellipse
   style="fill:#000000;fill-rule:evenodd;stroke-width:0.341471"
   id="ellipse900"
   cx="92.888397"
   cy="-191.16838"
   rx="3.1965089"
   ry="5.6277051"
   inkscape:transform-center-x="0.085091057"
   inkscape:transform-center-y="0.00041340913"
   transform="matrix(-0.16128921,0.98690718,-0.90454344,0.42638147,0,0)" />
               </g>

               <g
   inkscape:groupmode="layer"
   id="redPanda_eyebrows"
   inkscape:label="eyebrows"
   style="display:inline">
                 <ellipse
   style="fill:#ffffff;fill-opacity:1;fill-rule:evenodd;stroke:none;stroke-width:2.19539;stroke-linecap:round;stroke-dasharray:none;stroke-opacity:1"
   id="path5505"
   cx="134.90771"
   cy="24.168781"
   rx="6.4178691"
   ry="4.0034752"
   transform="matrix(0.97749552,0.21095617,-0.27112123,0.96254521,0,0)" />
                 <ellipse
   style="fill:#ffffff;fill-opacity:1;fill-rule:evenodd;stroke:none;stroke-width:2.19539;stroke-linecap:round;stroke-dasharray:none;stroke-opacity:1"
   id="ellipse5507"
   cx="-151.69089"
   cy="-96.427109"
   rx="6.4178691"
   ry="4.0034752"
   transform="matrix(-0.9602203,0.27924357,-0.21920697,-0.97567838,0,0)" />
               </g>
             </g>
             <metadata
   id="metadata911">
               <rdf:RDF>
                 <cc:Work
   rdf:about="">
                   <dc:title>Roter_Panda_Avatar</dc:title>
                 </cc:Work>
               </rdf:RDF>
             </metadata>
           </svg>
